<?xml version="1.0" encoding="utf-8"?>
<!-- Generator: Adobe Illustrator 16.0.0, SVG Export Plug-In . SVG Version: 6.00 Build 0)  -->
<!DOCTYPE svg PUBLIC "-//W3C//DTD SVG 1.1//EN" "http://www.w3.org/Graphics/SVG/1.1/DTD/svg11.dtd">
<svg version="1.1" id="Layer_1" xmlns="http://www.w3.org/2000/svg" xmlns:xlink="http://www.w3.org/1999/xlink" x="0px" y="0px"
	 width="400.467px" height="359.356px" viewBox="279.767 49.135 400.467 359.356"
	 enable-background="new 279.767 49.135 400.467 359.356" xml:space="preserve">
<g>
	<g>
		<path d="M480,341.013c-0.354,0-0.708-0.094-1.026-0.277L282.902,227.539c-0.981-0.569-1.317-1.819-0.748-2.8
			c0.564-0.986,1.819-1.322,2.8-0.753L480,336.601l195.046-112.614c0.981-0.569,2.235-0.233,2.8,0.753
			c0.569,0.981,0.237,2.231-0.748,2.8L481.026,340.74C480.708,340.924,480.354,341.013,480,341.013z"/>
		<g>
			<path d="M680.216,163.609c0-1.178-0.601-2.33-1.693-2.961L489.265,51.386c-5.196-3.002-13.337-3.002-18.538,0L281.478,160.648
				c-1.097,0.631-1.698,1.783-1.698,2.961h-0.013v19.623c0,6.003,4.072,13.055,9.269,16.056L470.73,304.191
				c2.604,1.497,5.937,2.25,9.27,2.25s6.666-0.753,9.265-2.25l181.7-104.903c5.196-3.001,9.269-10.053,9.269-16.056v-19.623H680.216
				z M474.145,57.304c3.118-1.801,8.588-1.801,11.706,0l185.495,107.094l-184.81,106.705c-3.544,2.043-9.524,2.043-13.072,0
				L288.65,164.398L474.145,57.304z M667.546,193.37L485.855,298.27c-3.118,1.801-8.588,1.801-11.706,0L292.454,193.37
				c-3.118-1.801-5.855-6.536-5.855-10.138v-15.281l184.813,106.7c2.41,1.393,5.497,2.083,8.588,2.083
				c3.087,0,6.178-0.69,8.584-2.083l184.817-106.7v15.281C673.401,186.834,670.669,191.569,667.546,193.37z"/>
			<path d="M676.815,262.241c-1.743,0-3.167,1.312-3.374,3.001L486.075,373.422c-3.293,1.899-8.861,1.899-12.154,0L286.558,265.243
				c-0.206-1.689-1.631-3.001-3.374-3.001c-1.886,0-3.418,1.532-3.418,3.423v19.617c0,6.004,4.072,13.061,9.269,16.057
				L470.73,406.242c2.604,1.496,5.937,2.249,9.27,2.249s6.666-0.753,9.265-2.249l181.7-104.904
				c5.196-3.001,9.269-10.053,9.269-16.057v-19.617C680.233,263.773,678.706,262.241,676.815,262.241z M667.546,295.42
				l-181.69,104.899c-3.118,1.801-8.588,1.801-11.706,0L292.454,295.42c-3.118-1.801-5.855-6.536-5.855-10.139V270L471.873,376.97
				c2.276,1.317,5.201,1.971,8.127,1.971c2.921,0,5.851-0.653,8.127-1.971L673.401,270v15.281
				C673.401,288.884,670.669,293.619,667.546,295.42z"/>
		</g>
		<g>
			<path d="M669.715,239.465c3.906-2.253,7.101-0.408,7.101,4.099v2.383c0,4.512-3.194,10.044-7.101,12.298L487.101,363.682
				c-3.906,2.254-10.295,2.254-14.201,0L290.286,258.25c-3.907-2.253-7.101-7.786-7.101-12.297v-2.383
				c0-4.507,3.194-6.353,7.101-4.1l182.609,105.432c3.906,2.254,10.295,2.254,14.202,0L669.715,239.465z"/>
		</g>
		<path d="M480,331.332c-0.354,0-0.708-0.09-1.026-0.273c-6.59-3.808-9.851-8.951-13.01-13.929
			c-3.023-4.771-5.882-9.277-11.594-12.579c-5.269-3.043-7.562-2.07-10.479-0.838c-3.159,1.335-7.088,2.992-14.121-1.066
			c-6.591-3.809-9.852-8.951-13.01-13.928c-3.02-4.768-5.878-9.274-11.59-12.576c-5.269-3.042-7.567-2.074-10.479-0.837
			c-3.159,1.335-7.087,2.997-14.125-1.062c-6.585-3.808-9.852-8.951-13.005-13.928c-3.024-4.776-5.878-9.283-11.594-12.58
			c-5.264-3.042-7.567-2.069-10.479-0.837c-3.158,1.331-7.087,2.993-14.121-1.066c-6.586-3.808-9.852-8.951-13.01-13.928
			c-3.024-4.767-5.877-9.274-11.594-12.576c-5.264-3.037-7.562-2.065-10.474-0.837c-3.163,1.335-7.092,2.997-14.125-1.066
			c-0.981-0.564-1.317-1.819-0.748-2.8c0.564-0.981,1.819-1.317,2.8-0.749c5.269,3.042,7.567,2.07,10.479,0.842
			c3.158-1.335,7.087-2.997,14.121,1.062c6.586,3.804,9.852,8.956,13.01,13.933c3.024,4.767,5.877,9.274,11.594,12.576
			c5.264,3.046,7.562,2.065,10.479,0.842c3.159-1.34,7.092-2.998,14.125,1.057c6.585,3.808,9.852,8.96,13.005,13.937
			c3.024,4.767,5.882,9.274,11.594,12.576c5.269,3.042,7.567,2.065,10.479,0.842c3.158-1.34,7.092-3.002,14.125,1.057
			c6.586,3.808,9.852,8.952,13.006,13.928c3.028,4.767,5.882,9.273,11.599,12.575c5.264,3.047,7.566,2.074,10.475,0.843
			c3.162-1.331,7.092-2.993,14.125,1.062c6.586,3.808,9.847,8.955,13.006,13.933c2.84,4.471,5.528,8.718,10.572,11.953
			c5.04-3.235,7.732-7.482,10.568-11.953c3.158-4.978,6.425-10.129,13.006-13.933c7.028-4.055,10.958-2.401,14.125-1.062
			c2.903,1.232,5.206,2.204,10.475-0.843c5.712-3.297,8.57-7.804,11.594-12.575c3.159-4.977,6.425-10.125,13.006-13.928
			c7.029-4.059,10.967-2.397,14.125-1.057c2.908,1.223,5.206,2.2,10.479-0.842c5.707-3.297,8.569-7.804,11.594-12.576
			c3.154-4.977,6.42-10.134,13.006-13.937c7.033-4.055,10.962-2.397,14.12-1.057c2.912,1.223,5.215,2.199,10.479-0.842
			c5.716-3.297,8.574-7.804,11.599-12.576c3.158-4.977,6.424-10.129,13.005-13.928c7.029-4.059,10.958-2.401,14.126-1.062
			c2.902,1.232,5.205,2.204,10.474-0.842c0.981-0.569,2.231-0.233,2.801,0.748c0.568,0.981,0.232,2.235-0.753,2.8
			c-7.029,4.059-10.963,2.401-14.121,1.066c-2.912-1.228-5.21-2.2-10.475,0.842c-5.716,3.297-8.574,7.804-11.594,12.575
			c-3.158,4.978-6.425,10.125-13.01,13.928c-7.029,4.059-10.963,2.397-14.121,1.066c-2.912-1.232-5.21-2.204-10.483,0.838
			c-5.712,3.292-8.565,7.8-11.594,12.58c-3.154,4.978-6.42,10.125-13.001,13.919c-7.034,4.068-10.963,2.406-14.126,1.071
			c-2.907-1.236-5.21-2.204-10.479,0.838c-5.712,3.297-8.57,7.804-11.594,12.575c-3.159,4.978-6.425,10.125-13.011,13.929
			c-7.028,4.059-10.962,2.401-14.121,1.066c-2.911-1.231-5.21-2.204-10.474,0.838c-5.717,3.297-8.57,7.804-11.595,12.58
			c-3.158,4.977-6.424,10.124-13.01,13.928C480.708,331.242,480.354,331.332,480,331.332z"/>
	</g>
</g>
</svg>
